<?xml version="1.0" encoding="UTF-8" standalone="no"?>
<svg 
    role="img" 
    xmlns="http://www.w3.org/2000/svg" 
    width="1000mm"
    height="1000mm"
    viewBox="0 0 1000 1000"
    style="max-width:1.6em; height: auto;">
    
    <path 
        id="path" 
        style="opacity:1;vector-effect:none;fill:#000000;fill-opacity:1;"
        d=" M 459 58C 459 58 537 58 537 58C 564 58 587 78 591 104C 591 104 602 165 602 165C 623 171 644 180 663 191C 663 191 715 154 715 154C 736 139 764 142 785 160C 785 160 840 215 840 215C 860 234 861 264 846 285C 846 285 809 337 809 337C 820 356 828 376 835 397C 835 397 897 407 897 407C 923 412 942 435 942 461C 942 461 942 539 942 539C 942 565 922 588 896 593C 896 593 834 603 834 603C 828 624 819 644 809 663C 809 663 846 715 846 715C 861 736 859 766 840 785C 840 785 785 840 785 840C 767 857 737 861 715 846C 715 846 663 809 663 809C 644 820 624 828 603 834C 603 834 593 896 593 896C 588 922 565 942 539 942C 539 942 461 942 461 942C 435 942 412 922 407 896C 407 896 397 834 397 834C 376 828 357 820 338 810C 338 810 286 847 286 847C 266 862 238 860 216 841C 216 841 162 786 162 786C 142 768 140 738 155 716C 155 716 192 665 192 665C 182 646 173 626 167 605C 167 605 104 595 104 595C 78 590 58 567 58 541C 58 541 58 463 58 463C 58 436 78 413 104 409C 104 409 165 398 165 398C 171 378 179 358 190 338C 190 338 153 286 153 286C 137 265 139 235 159 216C 159 216 214 162 214 162C 231 144 261 140 284 155C 284 155 335 192 335 192C 354 182 375 173 395 167C 395 167 405 104 405 104C 410 78 433 58 459 58M 500 309C 500 309 500 309 500 309C 395 309 309 395 309 500C 309 605 395 691 500 691C 605 691 691 605 691 500C 691 395 605 309 500 309"
        transform="">
    </path>    
</svg>